# xmcd
#
# Track frame offsets: 
#        150
#        18987
#        41020
#        59752
#        82005
#        108045
#        134013
#        155903
#        171387
#        192072
#        208124
#        226790
#        244603
#        266601
#        286154
#        309390
#        326417
#
# Disc length: 4638 seconds
#
# Revision: 0
# Processed by: cddbd v1.5.2PL0 Copyright (c) Steve Scherf et al.
# Submitted via: ExactAudioCopy v0.95a5
#
DISCID=f0121c11
DTITLE=群星 - 一人一首（男人篇）
DYEAR=2006
DGENRE=Pop
TTITLE0=九百九十九朵玫瑰
TTITLE1=特别的爱给特别的你
TTITLE2=你知道我在等你吗
TTITLE3=火柴天堂
TTITLE4=心太软
TTITLE5=下沙
TTITLE6=爱一个人好难
TTITLE7=一天一点爱恋
TTITLE8=只要你过的比我好
TTITLE9=情人
TTITLE10=最远的你是我最近的爱
TTITLE11=水中花
TTITLE12=明明白白我的心
TTITLE13=第一次
TTITLE14=十七岁的雨季
TTITLE15=大哥
TTITLE16=说谎
EXTD=
EXTT0=
EXTT1=
EXTT2=
EXTT3=
EXTT4=
EXTT5=
EXTT6=
EXTT7=
EXTT8=
EXTT9=
EXTT10=
EXTT11=
EXTT12=
EXTT13=
EXTT14=
EXTT15=
EXTT16=
PLAYORDER=
